# xmcd
#
# Track frame offsets: 
#        150
#        14615
#        30950
#        45357
#        57705
#        75377
#        92657
#        108042
#        126740
#        146042
#        164037
#
# Disc length: 2433 seconds
#
# Revision: 2
# Processed by: cddbd v1.5.2PL0 Copyright (c) Steve Scherf et al.
# Submitted via: ExactAudioCopy v1.3
#
DISCID=90097f0b
DTITLE=阿牛(陳慶祥) - 阿牛的WOWWOW情歌
DYEAR=2001
DGENRE=Country
TTITLE0=我是你的小小狗
TTITLE1=至霖情歌
TTITLE2=上輩子欠你
TTITLE3=小強的車
TTITLE4=老朋友
TTITLE5=有緣來做伙
TTITLE6=媽媽的愛有多少斤
TTITLE7=寶寶
TTITLE8=飛
TTITLE9=浪花一朵朵
TTITLE10=黑超女郎
EXTD=
EXTT0=
EXTT1=
EXTT2=
EXTT3=
EXTT4=
EXTT5=
EXTT6=
EXTT7=
EXTT8=
EXTT9=
EXTT10=
PLAYORDER=
